<svg width="153" height="31" viewBox="0 0 153 31" fill="none" xmlns="http://www.w3.org/2000/svg">
<path d="M0.144531 30V1.36719H12.8398C15.3919 1.36719 17.332 1.6276 18.6602 2.14844C19.9883 2.65625 21.0495 3.5612 21.8438 4.86328C22.638 6.16536 23.0352 7.60417 23.0352 9.17969C23.0352 11.2109 22.3776 12.9232 21.0625 14.3164C19.7474 15.7096 17.7161 16.5951 14.9688 16.9727C15.9714 17.4544 16.7331 17.9297 17.2539 18.3984C18.3607 19.4141 19.4089 20.6836 20.3984 22.207L25.3789 30H20.6133L16.8242 24.043C15.7174 22.3242 14.806 21.0091 14.0898 20.0977C13.3737 19.1862 12.7292 18.5482 12.1562 18.1836C11.5964 17.819 11.0234 17.5651 10.4375 17.4219C10.0078 17.3307 9.30469 17.2852 8.32812 17.2852H3.93359V30H0.144531ZM3.93359 14.0039H12.0781C13.8099 14.0039 15.1641 13.8281 16.1406 13.4766C17.1172 13.112 17.8594 12.5391 18.3672 11.7578C18.875 10.9635 19.1289 10.1042 19.1289 9.17969C19.1289 7.82552 18.6341 6.71224 17.6445 5.83984C16.668 4.96745 15.1185 4.53125 12.9961 4.53125H3.93359V14.0039Z" fill="white"/>
<path d="M27.7031 20.8008L31.2773 20.4883C31.4466 21.9206 31.8372 23.099 32.4492 24.0234C33.0742 24.9349 34.0378 25.6771 35.3398 26.25C36.6419 26.8099 38.1068 27.0898 39.7344 27.0898C41.1797 27.0898 42.4557 26.875 43.5625 26.4453C44.6693 26.0156 45.4896 25.4297 46.0234 24.6875C46.5703 23.9323 46.8438 23.112 46.8438 22.2266C46.8438 21.3281 46.5833 20.5469 46.0625 19.8828C45.5417 19.2057 44.6823 18.6393 43.4844 18.1836C42.7161 17.8841 41.0169 17.4219 38.3867 16.7969C35.7565 16.1589 33.9141 15.5599 32.8594 15C31.4922 14.2839 30.4701 13.3984 29.793 12.3438C29.1289 11.276 28.7969 10.0846 28.7969 8.76953C28.7969 7.32422 29.207 5.97656 30.0273 4.72656C30.8477 3.46354 32.0456 2.50651 33.6211 1.85547C35.1966 1.20443 36.9479 0.878906 38.875 0.878906C40.9974 0.878906 42.8659 1.22396 44.4805 1.91406C46.1081 2.59115 47.3581 3.59375 48.2305 4.92188C49.1029 6.25 49.5716 7.75391 49.6367 9.43359L46.0039 9.70703C45.8086 7.89714 45.1445 6.52995 44.0117 5.60547C42.8919 4.68099 41.2318 4.21875 39.0312 4.21875C36.7396 4.21875 35.0664 4.64193 34.0117 5.48828C32.9701 6.32161 32.4492 7.33073 32.4492 8.51562C32.4492 9.54427 32.8203 10.3906 33.5625 11.0547C34.2917 11.7188 36.1927 12.4023 39.2656 13.1055C42.3516 13.7956 44.4674 14.401 45.6133 14.9219C47.2799 15.6901 48.5104 16.6667 49.3047 17.8516C50.099 19.0234 50.4961 20.3776 50.4961 21.9141C50.4961 23.4375 50.0599 24.8763 49.1875 26.2305C48.3151 27.5716 47.0586 28.6198 45.418 29.375C43.7904 30.1172 41.9544 30.4883 39.9102 30.4883C37.319 30.4883 35.1445 30.1107 33.3867 29.3555C31.6419 28.6003 30.2682 27.4674 29.2656 25.957C28.276 24.4336 27.7552 22.7148 27.7031 20.8008Z" fill="white"/>
<path d="M63.8555 30L52.7617 1.36719H56.8633L64.3047 22.168C64.9036 23.8346 65.4049 25.3971 65.8086 26.8555C66.2513 25.293 66.7656 23.7305 67.3516 22.168L75.0859 1.36719H78.9531L67.7422 30H63.8555Z" fill="white"/>
<path d="M82.3516 30V1.36719H93.1523C95.0534 1.36719 96.5052 1.45833 97.5078 1.64062C98.9141 1.875 100.092 2.32422 101.043 2.98828C101.993 3.63932 102.755 4.55729 103.328 5.74219C103.914 6.92708 104.207 8.22917 104.207 9.64844C104.207 12.0833 103.432 14.1471 101.883 15.8398C100.333 17.5195 97.5339 18.3594 93.4844 18.3594H86.1406V30H82.3516ZM86.1406 14.9805H93.543C95.9909 14.9805 97.7292 14.5247 98.7578 13.6133C99.7865 12.7018 100.301 11.4193 100.301 9.76562C100.301 8.56771 99.9948 7.54557 99.3828 6.69922C98.7839 5.83984 97.9896 5.27344 97 5C96.362 4.83073 95.1836 4.74609 93.4648 4.74609H86.1406V14.9805Z" fill="white"/>
<path d="M133.025 30.1836L133.463 23.1775H116.207V8.18971H133.463L133.025 1.18359H139.375L152.207 15.6836L139.375 30.1836H133.025ZM134.689 28.8533L146.557 15.6836L134.689 2.51387L135.127 10.7172H118.046V20.65H135.127L134.689 28.8533Z" fill="white"/>
</svg>
